<svg width="60" height="60" version="1.1" viewBox="0 0 15.875 15.875" xmlns="http://www.w3.org/2000/svg"><g transform="matrix(.32003 0 0 .32003 -154.57 -27.422)" style="fill:#fff;stroke-width:3.1247"><g transform="matrix(.20277 0 0 .20277 412.05 65.997)" style="stroke-width:15.41"><g transform="matrix(.76624 0 0 .76624 -58.561 -8.0754)" style="stroke-width:20.111"><g transform="matrix(1.0161 0 0 1.0161 -12.567 -24.109)" style="stroke-width:19.793"><path transform="matrix(6.4821,0,0,6.4821,638.3,208.11)" d="m18.384 22.779c0.322 0.228 0.737 0.285 1.107 0.145 0.37-0.141 0.642-0.457 0.724-0.84 0.869-4.084 2.977-14.421 3.768-18.136 0.06-0.28-0.04-0.571-0.26-0.758s-0.525-0.241-0.797-0.14c-4.193 1.552-17.106 6.397-22.384 8.35-0.335 0.124-0.553 0.446-0.542 0.799 0.012 0.354 0.25 0.661 0.593 0.764 2.367 0.708 5.474 1.693 5.474 1.693s1.452 4.385 2.209 6.615c0.095 0.28 0.314 0.5 0.603 0.576 0.288 0.075 0.596-4e-3 0.811-0.207 1.216-1.148 3.096-2.923 3.096-2.923s3.572 2.619 5.598 4.062zm-11.01-8.677 1.679 5.538 0.373-3.507s6.487-5.851 10.185-9.186c0.108-0.098 0.123-0.262 0.033-0.377-0.089-0.115-0.253-0.142-0.376-0.064-4.286 2.737-11.894 7.596-11.894 7.596z" style="clip-rule:evenodd;fill-rule:evenodd;fill:#fff;stroke-linejoin:round;stroke-miterlimit:1.4142;stroke-width:.8079"/><text transform="scale(.9875 1.0127)" x="557.99768" y="412.37152" style="fill:#ffffff;font-family:Tahoma;font-size:58.892px;font-variant-ligatures:none;font-weight:bold;line-height:5.05;stroke-width:5.237" xml:space="preserve"><tspan x="557.99768" y="412.37152" style="fill:#ffffff;font-family:Tahoma;font-size:58.892px;font-weight:bold;stroke-width:5.237">TeleShare</tspan></text></g></g></g></g></svg>
